Archive:  /Users/adpena/Projects/pact/workspace/upstream/comma_video_compression_challenge/submissions/robust_current/archive.zip
  inflating: /Users/adpena/Projects/pact/workspace/upstream/comma_video_compression_challenge/submissions/robust_current/archive/0.mkv  
Inflating /Users/adpena/Projects/pact/workspace/upstream/comma_video_compression_challenge/submissions/robust_current/archive/0.mkv -> /Users/adpena/Projects/pact/workspace/upstream/comma_video_compression_challenge/submissions/robust_current/inflated/0.raw
ffmpeg version 8.1 Copyright (c) 2000-2026 the FFmpeg developers
  built with Apple clang version 17.0.0 (clang-1700.6.4.2)
  configuration: --prefix=/opt/homebrew/Cellar/ffmpeg/8.1 --enable-shared --enable-pthreads --enable-version3 --cc=clang --host-cflags= --host-ldflags= --enable-ffplay --enable-gpl --enable-libsvtav1 --enable-libopus --enable-libx264 --enable-libmp3lame --enable-libdav1d --enable-libvpx --enable-libx265 --enable-openssl --enable-videotoolbox --enable-audiotoolbox --enable-neon
  libavutil      60. 26.100 / 60. 26.100
  libavcodec     62. 28.100 / 62. 28.100
  libavformat    62. 12.100 / 62. 12.100
  libavdevice    62.  3.100 / 62.  3.100
  libavfilter    11. 14.100 / 11. 14.100
  libswscale      9.  5.100 /  9.  5.100
  libswresample   6.  3.100 /  6.  3.100
Input #0, matroska,webm, from '/Users/adpena/Projects/pact/workspace/upstream/comma_video_compression_challenge/submissions/robust_current/archive/0.mkv':
  Metadata:
    SEGMENT         : b0c9d2329ad1606b|2018-07-27--06-03-57/10/video.hevc
    ENCODER         : Lavf62.12.100
  Duration: 00:01:00.00, start: 0.000000, bitrate: 112 kb/s
  Stream #0:0: Video: av1 (libdav1d) (Main), yuv420p(tv, bt709, progressive), 528x392 [SAR 1:1 DAR 66:49], 20 fps, 20 tbr, 1k tbn
    Metadata:
      ENCODER         : Lavc62.28.100 libsvtav1
      DURATION        : 00:01:00.000000000
Stream mapping:
  Stream #0:0 -> #0:0 (av1 (libdav1d) -> rawvideo (native))
Press [q] to stop, [?] for help
Output #0, rawvideo, to '/Users/adpena/Projects/pact/workspace/upstream/comma_video_compression_challenge/submissions/robust_current/inflated/0.raw':
  Metadata:
    SEGMENT         : b0c9d2329ad1606b|2018-07-27--06-03-57/10/video.hevc
    encoder         : Lavf62.12.100
  Stream #0:0: Video: rawvideo (RGB[24] / 0x18424752), rgb24(pc, gbr/bt709/bt709, progressive), 1164x874 [SAR 4807:4753 DAR 66:49], q=2-31, 488321 kb/s, 20 fps, 20 tbn
    Metadata:
      encoder         : Lavc62.28.100 rawvideo
      DURATION        : 00:01:00.000000000
frame=    7 fps=0.0 q=-0.0 size=   17664KiB time=00:00:00.35 bitrate=413438.5kbits/s speed=0.689x elapsed=0:00:00.50    frame=   26 fps= 26 q=-0.0 size=   74496KiB time=00:00:01.30 bitrate=469439.4kbits/s speed=1.28x elapsed=0:00:01.01    frame=   49 fps= 32 q=-0.0 size=  142848KiB time=00:00:02.45 bitrate=477637.1kbits/s speed= 1.6x elapsed=0:00:01.53    frame=   64 fps= 31 q=-0.0 size=  187648KiB time=00:00:03.20 bitrate=480378.9kbits/s speed=1.57x elapsed=0:00:02.03    frame=   86 fps= 34 q=-0.0 size=  253184KiB time=00:00:04.30 bitrate=482345.0kbits/s speed=1.69x elapsed=0:00:02.54    frame=  112 fps= 37 q=-0.0 size=  330752KiB time=00:00:05.60 bitrate=483842.9kbits/s speed=1.84x elapsed=0:00:03.05    frame=  134 fps= 38 q=-0.0 size=  396288KiB time=00:00:06.70 bitrate=484536.0kbits/s speed=1.88x elapsed=0:00:03.55    frame=  154 fps= 38 q=-0.0 size=  455936KiB time=00:00:07.70 bitrate=485068.5kbits/s speed=1.89x elapsed=0:00:04.06    frame=  177 fps= 39 q=-0.0 size=  524544KiB time=00:00:08.85 bitrate=485544.0kbits/s speed=1.94x elapsed=0:00:04.57    frame=  198 fps= 39 q=-0.0 size=  587008KiB time=00:00:09.90 bitrate=485734.3kbits/s speed=1.95x elapsed=0:00:05.08    frame=  217 fps= 39 q=-0.0 size=  643584KiB time=00:00:10.85 bitrate=485920.7kbits/s speed=1.94x elapsed=0:00:05.59    frame=  237 fps= 39 q=-0.0 size=  703232KiB time=00:00:11.85 bitrate=486149.9kbits/s speed=1.94x elapsed=0:00:06.09    frame=  253 fps= 38 q=-0.0 size=  750848KiB time=00:00:12.65 bitrate=486240.9kbits/s speed=1.91x elapsed=0:00:06.60    frame=  271 fps= 38 q=-0.0 size=  804608KiB time=00:00:13.55 bitrate=486446.4kbits/s speed= 1.9x elapsed=0:00:07.11    frame=  291 fps= 38 q=-0.0 size=  864256KiB time=00:00:14.55 bitrate=486596.9kbits/s speed=1.91x elapsed=0:00:07.62    frame=  308 fps= 38 q=-0.0 size=  914944KiB time=00:00:15.40 bitrate=486702.7kbits/s speed=1.89x elapsed=0:00:08.13    frame=  324 fps= 38 q=-0.0 size=  962560KiB time=00:00:16.20 bitrate=486746.4kbits/s speed=1.88x elapsed=0:00:08.63    frame=  347 fps= 38 q=-0.0 size= 1031168KiB time=00:00:17.35 bitrate=486877.7kbits/s speed= 1.9x elapsed=0:00:09.14    frame=  361 fps= 37 q=-0.0 size= 1072896KiB time=00:00:18.05 bitrate=486934.3kbits/s speed=1.87x elapsed=0:00:09.64    frame=  385 fps= 38 q=-0.0 size= 1144320KiB time=00:00:19.25 bitrate=486975.0kbits/s speed= 1.9x elapsed=0:00:10.15    frame=  403 fps= 38 q=-0.0 size= 1198080KiB time=00:00:20.15 bitrate=487080.5kbits/s speed=1.89x elapsed=0:00:10.66    frame=  421 fps= 38 q=-0.0 size= 1251584KiB time=00:00:21.05 bitrate=487077.3kbits/s speed=1.88x elapsed=0:00:11.16    frame=  443 fps= 38 q=-0.0 size= 1317120KiB time=00:00:22.15 bitrate=487126.3kbits/s speed= 1.9x elapsed=0:00:11.67    frame=  460 fps= 38 q=-0.0 size= 1367808KiB time=00:00:23.00 bitrate=487177.5kbits/s speed=1.89x elapsed=0:00:12.17    frame=  483 fps= 38 q=-0.0 size= 1436416KiB time=00:00:24.15 bitrate=487251.3kbits/s speed= 1.9x elapsed=0:00:12.67    frame=  499 fps= 38 q=-0.0 size= 1484032KiB time=00:00:24.95 bitrate=487262.1kbits/s speed=1.89x elapsed=0:00:13.18    frame=  515 fps= 38 q=-0.0 size= 1531904KiB time=00:00:25.75 bitrate=487353.7kbits/s speed=1.88x elapsed=0:00:13.69    frame=  541 fps= 38 q=-0.0 size= 1609216KiB time=00:00:27.05 bitrate=487345.6kbits/s speed=1.91x elapsed=0:00:14.19    frame=  558 fps= 38 q=-0.0 size= 1659904KiB time=00:00:27.90 bitrate=487381.1kbits/s speed= 1.9x elapsed=0:00:14.70    frame=  575 fps= 38 q=-0.0 size= 1710592KiB time=00:00:28.75 bitrate=487414.6kbits/s speed=1.89x elapsed=0:00:15.20    frame=  594 fps= 38 q=-0.0 size= 1767168KiB time=00:00:29.70 bitrate=487429.0kbits/s speed=1.89x elapsed=0:00:15.70    frame=  608 fps= 37 q=-0.0 size= 1808896KiB time=00:00:30.40 bitrate=487449.9kbits/s speed=1.87x elapsed=0:00:16.21    frame=  630 fps= 38 q=-0.0 size= 1874688KiB time=00:00:31.50 bitrate=487537.9kbits/s speed=1.88x elapsed=0:00:16.72    frame=  645 fps= 37 q=-0.0 size= 1919232KiB time=00:00:32.25 bitrate=487514.7kbits/s speed=1.87x elapsed=0:00:17.23    frame=  664 fps= 37 q=-0.0 size= 1975808KiB time=00:00:33.20 bitrate=487524.7kbits/s speed=1.87x elapsed=0:00:17.74    frame=  679 fps= 37 q=-0.0 size= 2020608KiB time=00:00:33.95 bitrate=487564.7kbits/s speed=1.86x elapsed=0:00:18.24    frame=  692 fps= 37 q=-0.0 size= 2059264KiB time=00:00:34.60 bitrate=487557.5kbits/s speed=1.85x elapsed=0:00:18.74    frame=  712 fps= 37 q=-0.0 size= 2118912KiB time=00:00:35.60 bitrate=487587.8kbits/s speed=1.85x elapsed=0:00:19.25    frame=  739 fps= 37 q=-0.0 size= 2199552KiB time=00:00:36.95 bitrate=487651.7kbits/s speed=1.87x elapsed=0:00:19.76    frame=  763 fps= 38 q=-0.0 size= 2270976KiB time=00:00:38.15 bitrate=487649.7kbits/s speed=1.88x elapsed=0:00:20.26    frame=  782 fps= 38 q=-0.0 size= 2327552KiB time=00:00:39.10 bitrate=487654.9kbits/s speed=1.88x elapsed=0:00:20.76    frame=  802 fps= 38 q=-0.0 size= 2387200KiB time=00:00:40.10 bitrate=487679.4kbits/s speed=1.88x elapsed=0:00:21.27    frame=  820 fps= 38 q=-0.0 size= 2440960KiB time=00:00:41.00 bitrate=487715.7kbits/s speed=1.88x elapsed=0:00:21.77    frame=  838 fps= 38 q=-0.0 size= 2494464KiB time=00:00:41.90 bitrate=487700.5kbits/s speed=1.88x elapsed=0:00:22.28    frame=  854 fps= 37 q=-0.0 size= 2542336KiB time=00:00:42.75 bitrate=487177.0kbits/s speed=1.88x elapsed=0:00:22.79    frame=  874 fps= 38 q=-0.0 size= 2601728KiB time=00:00:43.70 bitrate=487719.8kbits/s speed=1.88x elapsed=0:00:23.30    frame=  885 fps= 37 q=-0.0 size= 2634496KiB time=00:00:44.30 bitrate=487173.6kbits/s speed=1.86x elapsed=0:00:23.81    frame=  904 fps= 37 q=-0.0 size= 2691328KiB time=00:00:45.20 bitrate=487773.4kbits/s speed=1.86x elapsed=0:00:24.32    frame=  929 fps= 37 q=-0.0 size= 2765824KiB time=00:00:46.45 bitrate=487785.4kbits/s speed=1.87x elapsed=0:00:24.82    frame=  948 fps= 37 q=-0.0 size= 2822400KiB time=00:00:47.40 bitrate=487786.9kbits/s speed=1.87x elapsed=0:00:25.32    frame=  971 fps= 38 q=-0.0 size= 2891008KiB time=00:00:48.55 bitrate=487809.2kbits/s speed=1.88x elapsed=0:00:25.83    frame=  982 fps= 37 q=-0.0 size= 2923776KiB time=00:00:49.10 bitrate=487812.1kbits/s speed=1.86x elapsed=0:00:26.33    frame= 1003 fps= 37 q=-0.0 size= 2986240KiB time=00:00:50.15 bitrate=487802.2kbits/s speed=1.87x elapsed=0:00:26.84    frame= 1021 fps= 37 q=-0.0 size= 3040000KiB time=00:00:51.05 bitrate=487829.2kbits/s speed=1.87x elapsed=0:00:27.34    frame= 1045 fps= 38 q=-0.0 size= 3111424KiB time=00:00:52.25 bitrate=487823.6kbits/s speed=1.88x elapsed=0:00:27.85    frame= 1070 fps= 38 q=-0.0 size= 3185920KiB time=00:00:53.50 bitrate=487832.8kbits/s speed=1.89x elapsed=0:00:28.36    frame= 1088 fps= 38 q=-0.0 size= 3239680KiB time=00:00:54.40 bitrate=487857.7kbits/s speed=1.88x elapsed=0:00:28.86    frame= 1109 fps= 38 q=-0.0 size= 3302144KiB time=00:00:55.45 bitrate=487847.9kbits/s speed=1.89x elapsed=0:00:29.37    frame= 1142 fps= 38 q=-0.0 size= 3400704KiB time=00:00:57.10 bitrate=487890.8kbits/s speed=1.91x elapsed=0:00:29.88    frame= 1163 fps= 38 q=-0.0 size= 3463168KiB time=00:00:58.15 bitrate=487880.9kbits/s speed=1.91x elapsed=0:00:30.38    frame= 1189 fps= 38 q=-0.0 size= 3540736KiB time=00:00:59.45 bitrate=487900.9kbits/s speed=1.92x elapsed=0:00:30.89    [out#0/rawvideo @ 0x890c106c0] video:3576572KiB audio:0KiB subtitle:0KiB other streams:0KiB global headers:0KiB muxing overhead: 0.000000%
frame= 1200 fps= 39 q=-0.0 Lsize= 3576572KiB time=00:01:00.00 bitrate=488321.3kbits/s speed=1.93x elapsed=0:00:31.04    
All videos inflated to /Users/adpena/Projects/pact/workspace/upstream/comma_video_compression_challenge/submissions/robust_current/inflated
=== Evaluation config ===
  batch_size: 16
  device: cpu
  num_threads: 2
  prefetch_queue_depth: 4
  report: /Users/adpena/Projects/pact/workspace/upstream/comma_video_compression_challenge/submissions/robust_current/report.txt
  seed: 1234
  submission_dir: /Users/adpena/Projects/pact/workspace/upstream/comma_video_compression_challenge/submissions/robust_current
  uncompressed_dir: /Users/adpena/Projects/pact/workspace/upstream/comma_video_compression_challenge/videos
  video_names_file: /Users/adpena/Projects/pact/workspace/upstream/comma_video_compression_challenge/public_test_video_names.txt
AVVideoDataset on rank 0 with 1 files.
TensorVideoDataset on rank 0 with 1 files.
0it [00:00, ?it/s]/Users/adpena/Projects/pact/workspace/upstream/comma_video_compression_challenge/frame_utils.py:232: UserWarning: The given NumPy array is not writable, and PyTorch does not support non-writable tensors. This means writing to this tensor will result in undefined behavior. You may want to copy the array to protect its data or make it writable before converting it to a tensor. This type of warning will be suppressed for the rest of this program. (Triggered internally at /Users/runner/work/pytorch/pytorch/pytorch/torch/csrc/utils/tensor_numpy.cpp:219.)
  frames = torch.from_numpy(mm)  # (N, H, W, C), shares mmap memory
1it [01:15, 75.59s/it]2it [02:32, 76.22s/it]3it [03:35, 70.13s/it]4it [04:39, 67.90s/it]5it [05:38, 64.79s/it]6it [06:42, 64.48s/it]7it [07:44, 63.53s/it]8it [08:45, 62.80s/it]9it [09:24, 55.24s/it]10it [10:02, 50.11s/it]11it [10:42, 46.87s/it]12it [11:20, 44.20s/it]13it [11:57, 42.17s/it]14it [12:36, 41.18s/it]15it [13:17, 40.88s/it]16it [13:56, 40.58s/it]17it [14:37, 40.57s/it]18it [15:15, 39.93s/it]19it [15:53, 39.20s/it]20it [16:32, 39.15s/it]21it [17:08, 38.09s/it]22it [17:42, 37.14s/it]23it [18:17, 36.46s/it]24it [18:52, 35.97s/it]25it [19:27, 35.50s/it]26it [20:02, 35.50s/it]27it [20:37, 35.23s/it]28it [21:13, 35.70s/it]29it [21:53, 36.81s/it]30it [22:28, 36.44s/it]31it [23:04, 36.08s/it]32it [23:44, 37.23s/it]33it [24:24, 38.22s/it]34it [25:04, 38.80s/it]35it [25:43, 38.92s/it]36it [26:24, 39.42s/it]37it [27:00, 38.38s/it]38it [28:19, 50.51s/it]38it [28:19, 44.72s/it]
=== Evaluation results over 600 samples ===
  Average PoseNet Distortion: 0.10351682
  Average SegNet Distortion: 0.00593794
  Submission file size: 834,304 bytes
  Original uncompressed size: 37,545,489 bytes
  Compression Rate: 0.02222115
  Final score: 100*segnet_dist + √(10*posenet_dist) + 25*rate = 2.17
Evaluation complete. Report saved to /Users/adpena/Projects/pact/workspace/upstream/comma_video_compression_challenge/submissions/robust_current/report.txt
{
  "copied_report_path": "reports/raw/2026-04-06-av1-roi-experiments/exp_python_bicubic_040_report.txt",
  "current_workflow_archive_bytes": 834304,
  "current_workflow_rate": 0.02222115,
  "current_workflow_score": 2.17,
  "device": "cpu",
  "original_uncompressed_bytes": 37545489,
  "pose_distortion": 0.10351682,
  "report_path": "/Users/adpena/Projects/pact/workspace/upstream/comma_video_compression_challenge/submissions/robust_current/report.txt",
  "rule_faithful_bundle_bytes": 868802,
  "rule_faithful_bundle_paths": [
    "archive.zip",
    "inflate.sh",
    "config.env",
    "analyze_roi.py"
  ],
  "rule_faithful_rate": 0.02313998360761795,
  "rule_faithful_score": 2.189725750091049,
  "rule_faithful_status": "estimated_from_scorer_distortions_plus_installed_runtime_payload",
  "seg_distortion": 0.00593794,
  "track": "robust_current"
}
